<svg version="1.1" xmlns="http://www.w3.org/2000/svg" xmlns:xlink="http://www.w3.org/1999/xlink" x="0px" y="0px" viewBox="0 0 32.9 24.5" enable-background="new 0 0 32.9 24.5" xml:space="preserve"><path d="M29.5,0H3.4C1.5,0,0,1.5,0,3.4v17.8c0,1.9,1.5,3.4,3.4,3.4h26.2c1.9,0,3.4-1.5,3.4-3.4V3.4  C32.9,1.5,31.4,0,29.5,0z M12.7,17.8c0,1.6-0.3,2.7-1,3.1c-0.5,0.3-1.6,0.4-3.4,0.4c-1.4,0-2.4-0.2-2.8-0.7  c-0.4-0.4-0.6-1.4-0.6-2.8V14h3.4v3.6c0,0.8,0.3,0.9,0.6,0.9c0.2,0,0.5-0.1,0.5-0.6V4h3.4V17.8z M20.4,6.7h-1.7v14.5h-3.4V6.7h-1.7  V4h6.8V6.7z M27,21.2h-5.4V4h3.4v14.4H27V21.2z"></path></svg>